{
  "accessors": [
    {
      "bufferView": 2,
      "componentType": 5126,
      "count": 307,
      "max": [
        1.2230044603347778,
        0.9451223015785217,
        0.14969968795776367
      ],
      "min": [
        -1.251130223274231,
        -0.9289537072181702,
        -0.14969968795776367
      ],
      "type": "VEC3"
    },
    {
      "bufferView": 2,
      "byteOffset": 3684,
      "componentType": 5126,
      "count": 307,
      "max": [
        0.9940748810768127,
        0.9997857213020325,
        0.991341233253479
      ],
      "min": [
        -0.9998379945755005,
        -0.9999568462371826,
        -0.0
      ],
      "type": "VEC3"
    },
    {
      "bufferView": 1,
      "componentType": 5126,
      "count": 307,
      "max": [
        0.9087026119232178,
        0.5
      ],
      "min": [
        0.09158395975828171,
        0.09141260385513306
      ],
      "type": "VEC2"
    },
    {
      "bufferView": 0,
      "componentType": 5125,
      "count": 804,
      "type": "SCALAR"
    },
    {
      "bufferView": 2,
      "byteOffset": 7368,
      "componentType": 5126,
      "count": 4924,
      "max": [
        1.47673761844635,
        2.4564692974090576,
        0.2520778477191925
      ],
      "min": [
        -1.47673761844635,
        -2.4564692974090576,
        -0.2520778477191925
      ],
      "type": "VEC3"
    },
    {
      "bufferView": 2,
      "byteOffset": 66456,
      "componentType": 5126,
      "count": 4924,
      "max": [
        1.0,
        1.0,
        1.0
      ],
      "min": [
        -1.0,
        -1.0,
        -0.9992274641990662
      ],
      "type": "VEC3"
    },
    {
      "bufferView": 1,
      "byteOffset": 2456,
      "componentType": 5126,
      "count": 4924,
      "max": [
        0.9816628694534302,
        0.9868295788764954
      ],
      "min": [
        0.012390851974487305,
        0.0028662681579589844
      ],
      "type": "VEC2"
    },
    {
      "bufferView": 0,
      "byteOffset": 3216,
      "componentType": 5125,
      "count": 20262,
      "type": "SCALAR"
    },
    {
      "bufferView": 2,
      "byteOffset": 125544,
      "componentType": 5126,
      "count": 10472,
      "max": [
        4.022401332855225,
        4.169768810272217,
        3.960575819015503
      ],
      "min": [
        -3.8589301109313965,
        -3.7943742275238037,
        1.3928871154785156
      ],
      "type": "VEC3"
    },
    {
      "bufferView": 2,
      "byteOffset": 251208,
      "componentType": 5126,
      "count": 10472,
      "max": [
        1.0,
        1.0,
        1.0
      ],
      "min": [
        -1.0,
        -1.0,
        -1.0
      ],
      "type": "VEC3"
    },
    {
      "bufferView": 1,
      "byteOffset": 41848,
      "componentType": 5126,
      "count": 10472,
      "max": [
        0.3230496346950531,
        0.7485561370849609
      ],
      "min": [
        0.09674398601055145,
        0.6091683506965637
      ],
      "type": "VEC2"
    },
    {
      "bufferView": 0,
      "byteOffset": 84264,
      "componentType": 5125,
      "count": 15972,
      "type": "SCALAR"
    },
    {
      "bufferView": 2,
      "byteOffset": 376872,
      "componentType": 5126,
      "count": 1472,
      "max": [
        1.0,
        1.0,
        1.0
      ],
      "min": [
        -1.0,
        -1.0,
        -1.0
      ],
      "type": "VEC3"
    },
    {
      "bufferView": 2,
      "byteOffset": 394536,
      "componentType": 5126,
      "count": 1472,
      "max": [
        0.9951865673065186,
        1.0,
        0.9951865673065186
      ],
      "min": [
        -0.9951865673065186,
        -1.0,
        -0.9951865673065186
      ],
      "type": "VEC3"
    },
    {
      "bufferView": 1,
      "byteOffset": 125624,
      "componentType": 5126,
      "count": 1472,
      "max": [
        0.7465322613716125,
        0.7216706275939941
      ],
      "min": [
        0.6436417698860168,
        0.6567552089691162
      ],
      "type": "VEC2"
    },
    {
      "bufferView": 0,
      "byteOffset": 148152,
      "componentType": 5125,
      "count": 2292,
      "type": "SCALAR"
    },
    {
      "bufferView": 2,
      "byteOffset": 412200,
      "componentType": 5126,
      "count": 1472,
      "max": [
        3.5629918575286865,
        0.9999998807907104,
        -0.1864967942237854
      ],
      "min": [
        1.5629918575286865,
        -1.0000001192092896,
        -2.1864967346191406
      ],
      "type": "VEC3"
    },
    {
      "bufferView": 2,
      "byteOffset": 429864,
      "componentType": 5126,
      "count": 1472,
      "max": [
        0.9951865673065186,
        1.0,
        0.9951865673065186
      ],
      "min": [
        -0.9951865673065186,
        -1.0,
        -0.9951865673065186
      ],
      "type": "VEC3"
    },
    {
      "bufferView": 1,
      "byteOffset": 137400,
      "componentType": 5126,
      "count": 1472,
      "max": [
        0.9050936698913574,
        0.6804559230804443
      ],
      "min": [
        0.802719235420227,
        0.6116912364959717
      ],
      "type": "VEC2"
    },
    {
      "bufferView": 0,
      "byteOffset": 157320,
      "componentType": 5125,
      "count": 2292,
      "type": "SCALAR"
    },
    {
      "bufferView": 2,
      "byteOffset": 447528,
      "componentType": 5126,
      "count": 1426,
      "max": [
        11.285415649414063,
        -5.47603702545166,
        3.5064337253570557
      ],
      "min": [
        4.291676998138428,
        -7.541036128997803,
        -0.8884913325309753
      ],
      "type": "VEC3"
    },
    {
      "bufferView": 2,
      "byteOffset": 464640,
      "componentType": 5126,
      "count": 1426,
      "max": [
        0.9951865673065186,
        1.0,
        0.9951865673065186
      ],
      "min": [
        -0.9951865673065186,
        -1.0,
        -0.9951865673065186
      ],
      "type": "VEC3"
    },
    {
      "bufferView": 1,
      "byteOffset": 149176,
      "componentType": 5126,
      "count": 1426,
      "max": [
        0.4208809435367584,
        0.8414788246154785
      ],
      "min": [
        0.3114060163497925,
        0.7980651259422302
      ],
      "type": "VEC2"
    },
    {
      "bufferView": 0,
      "byteOffset": 166488,
      "componentType": 5125,
      "count": 2220,
      "type": "SCALAR"
    },
    {
      "bufferView": 2,
      "byteOffset": 481752,
      "componentType": 5126,
      "count": 1426,
      "max": [
        1.112168788909912,
        -5.47603702545166,
        3.6055848598480225
      ],
      "min": [
        -5.8815693855285645,
        -7.541036128997803,
        -1.0063221454620361
      ],
      "type": "VEC3"
    },
    {
      "bufferView": 2,
      "byteOffset": 498864,
      "componentType": 5126,
      "count": 1426,
      "max": [
        0.9951865673065186,
        1.0,
        0.9951865673065186
      ],
      "min": [
        -0.9951865673065186,
        -1.0,
        -0.9951865673065186
      ],
      "type": "VEC3"
    },
    {
      "bufferView": 1,
      "byteOffset": 160584,
      "componentType": 5126,
      "count": 1426,
      "max": [
        0.5813091993331909,
        0.8407109975814819
      ],
      "min": [
        0.47271963953971863,
        0.7960288524627686
      ],
      "type": "VEC2"
    },
    {
      "bufferView": 0,
      "byteOffset": 175368,
      "componentType": 5125,
      "count": 2220,
      "type": "SCALAR"
    }
  ],
  "asset": {
    "extras": {
      "author": "vidhanchalke10 (https://sketchfab.com/vidhanchalke10)",
      "license": "CC-BY-4.0 (http://creativecommons.org/licenses/by/4.0/)",
      "source": "https://sketchfab.com/3d-models/gameboy-19bca1af75f94df692805f3b58be4ccf",
      "title": "Gameboy"
    },
    "generator": "Sketchfab-15.61.0",
    "version": "2.0"
  },
  "bufferViews": [
    {
      "buffer": 0,
      "byteLength": 184248,
      "name": "floatBufferViews",
      "target": 34963
    },
    {
      "buffer": 0,
      "byteLength": 171992,
      "byteOffset": 184248,
      "byteStride": 8,
      "name": "floatBufferViews",
      "target": 34962
    },
    {
      "buffer": 0,
      "byteLength": 515976,
      "byteOffset": 356240,
      "byteStride": 12,
      "name": "floatBufferViews",
      "target": 34962
    }
  ],
  "buffers": [
    {
      "byteLength": 872216,
      "uri": "scene.bin"
    }
  ],
  "images": [
    {
      "uri": "textures/screen_baseColor.jpeg"
    }
  ],
  "materials": [
    {
      "doubleSided": true,
      "name": "screen",
      "pbrMetallicRoughness": {
        "baseColorTexture": {
          "index": 0
        },
        "metallicFactor": 0.0,
        "roughnessFactor": 0.0
      }
    },
    {
      "doubleSided": true,
      "name": "body",
      "pbrMetallicRoughness": {
        "baseColorTexture": {
          "index": 0
        },
        "metallicFactor": 0.0,
        "roughnessFactor": 0.5
      }
    }
  ],
  "meshes": [
    {
      "name": "Object_0",
      "primitives": [
        {
          "attributes": {
            "NORMAL": 1,
            "POSITION": 0,
            "TEXCOORD_0": 2
          },
          "indices": 3,
          "material": 0,
          "mode": 4
        }
      ]
    },
    {
      "name": "Object_1",
      "primitives": [
        {
          "attributes": {
            "NORMAL": 5,
            "POSITION": 4,
            "TEXCOORD_0": 6
          },
          "indices": 7,
          "material": 1,
          "mode": 4
        }
      ]
    },
    {
      "name": "Object_2",
      "primitives": [
        {
          "attributes": {
            "NORMAL": 9,
            "POSITION": 8,
            "TEXCOORD_0": 10
          },
          "indices": 11,
          "material": 1,
          "mode": 4
        }
      ]
    },
    {
      "name": "Object_3",
      "primitives": [
        {
          "attributes": {
            "NORMAL": 13,
            "POSITION": 12,
            "TEXCOORD_0": 14
          },
          "indices": 15,
          "material": 1,
          "mode": 4
        }
      ]
    },
    {
      "name": "Object_4",
      "primitives": [
        {
          "attributes": {
            "NORMAL": 17,
            "POSITION": 16,
            "TEXCOORD_0": 18
          },
          "indices": 19,
          "material": 1,
          "mode": 4
        }
      ]
    },
    {
      "name": "Object_5",
      "primitives": [
        {
          "attributes": {
            "NORMAL": 21,
            "POSITION": 20,
            "TEXCOORD_0": 22
          },
          "indices": 23,
          "material": 1,
          "mode": 4
        }
      ]
    },
    {
      "name": "Object_6",
      "primitives": [
        {
          "attributes": {
            "NORMAL": 25,
            "POSITION": 24,
            "TEXCOORD_0": 26
          },
          "indices": 27,
          "material": 1,
          "mode": 4
        }
      ]
    }
  ],
  "nodes": [
    {
      "children": [
        1
      ],
      "matrix": [
        1.0,
        0.0,
        0.0,
        0.0,
        0.0,
        2.220446049250313e-16,
        -1.0,
        0.0,
        0.0,
        1.0,
        2.220446049250313e-16,
        0.0,
        0.0,
        0.0,
        0.0,
        1.0
      ],
      "name": "Sketchfab_model"
    },
    {
      "children": [
        2
      ],
      "name": "root"
    },
    {
      "children": [
        3,
        5,
        7,
        9,
        11,
        13,
        15
      ],
      "matrix": [
        1.0,
        0.0,
        0.0,
        0.0,
        0.0,
        2.220446049250313e-16,
        1.0,
        0.0,
        0.0,
        -1.0,
        2.220446049250313e-16,
        0.0,
        0.0,
        0.0,
        0.0,
        1.0
      ],
      "name": "GLTF_SceneRootNode"
    },
    {
      "children": [
        4
      ],
      "matrix": [
        1.0126861333847046,
        0.0,
        0.0,
        0.0,
        0.0,
        1.0126861333847046,
        0.0,
        0.0,
        0.0,
        0.0,
        1.0126861333847046,
        0.0,
        -0.020264729857444763,
        3.766946315765381,
        0.20111548900604248,
        1.0
      ],
      "name": "Cube.003_0"
    },
    {
      "mesh": 0,
      "name": "Object_4"
    },
    {
      "children": [
        6
      ],
      "matrix": [
        1.0,
        0.0,
        0.0,
        0.0,
        0.0,
        1.0,
        0.0,
        0.0,
        0.0,
        0.0,
        1.1702927350997925,
        0.0,
        -0.0293075293302536,
        2.6805734634399414,
        0.0,
        1.0
      ],
      "name": "Cube_1"
    },
    {
      "mesh": 1,
      "name": "Object_6"
    },
    {
      "children": [
        8
      ],
      "matrix": [
        0.08795619010925293,
        0.0,
        0.0,
        0.0,
        0.0,
        0.08795619010925293,
        0.0,
        0.0,
        0.0,
        0.0,
        0.08795619010925293,
        0.0,
        -0.9190114736557007,
        1.7802115678787231,
        0.02037571743130684,
        1.0
      ],
      "name": "Cube.001_2"
    },
    {
      "mesh": 2,
      "name": "Object_8"
    },
    {
      "children": [
        10
      ],
      "matrix": [
        0.1704908013343811,
        0.0,
        0.0,
        0.0,
        0.0,
        -1.4371315922119332e-08,
        0.17049099504947604,
        0.0,
        0.0,
        -0.169876873493194,
        -1.4319549347014579e-08,
        0.0,
        0.5724767446517944,
        1.7212004661560059,
        0.1882925182580948,
        1.0
      ],
      "name": "Cylinder_3"
    },
    {
      "mesh": 3,
      "name": "Object_10"
    },
    {
      "children": [
        12
      ],
      "matrix": [
        0.17049099504947662,
        0.0,
        0.0,
        0.0,
        0.0,
        -1.4371315922119332e-08,
        0.17049099504947604,
        0.0,
        0.0,
        -0.17049099504947604,
        -1.4371315922119332e-08,
        0.0,
        0.6145145297050476,
        1.7373942136764526,
        0.1882925182580948,
        1.0
      ],
      "name": "Cylinder.001_4"
    },
    {
      "mesh": 4,
      "name": "Object_12"
    },
    {
      "children": [
        14
      ],
      "matrix": [
        -0.045813001692295074,
        -0.0,
        0.0,
        -0.0,
        0.0,
        3.8617471877004056e-09,
        -0.045813001692294915,
        -0.0,
        0.0,
        0.045813001692294915,
        3.8617471877004056e-09,
        -0.0,
        -0.08624885976314545,
        1.0129469633102417,
        -0.02617248333990574,
        1.0
      ],
      "name": "Cylinder.002_5"
    },
    {
      "mesh": 5,
      "name": "Object_14"
    },
    {
      "children": [
        16
      ],
      "matrix": [
        -0.045813001692295074,
        -0.0,
        0.0,
        -0.0,
        0.0,
        -0.0,
        -0.04581330716609955,
        -0.0,
        0.0,
        0.04581330716609955,
        0.0,
        -0.0,
        -0.051564257591962814,
        1.006748914718628,
        -0.02617248333990574,
        1.0
      ],
      "name": "Cylinder.003_6"
    },
    {
      "mesh": 6,
      "name": "Object_16"
    }
  ],
  "samplers": [
    {
      "magFilter": 9729,
      "minFilter": 9987,
      "wrapS": 10497,
      "wrapT": 10497
    }
  ],
  "scene": 0,
  "scenes": [
    {
      "name": "Sketchfab_Scene",
      "nodes": [
        0
      ]
    }
  ],
  "textures": [
    {
      "sampler": 0,
      "source": 0
    }
  ]
}
